<?xml version="1.0" encoding="UTF-8" standalone="no"?>
<!-- Created with Inkscape (http://www.inkscape.org/) -->

<svg
   xmlns:dc="http://purl.org/dc/elements/1.1/"
   xmlns:cc="http://creativecommons.org/ns#"
   xmlns:rdf="http://www.w3.org/1999/02/22-rdf-syntax-ns#"
   xmlns:svg="http://www.w3.org/2000/svg"
   xmlns="http://www.w3.org/2000/svg"
   xmlns:sodipodi="http://sodipodi.sourceforge.net/DTD/sodipodi-0.dtd"
   xmlns:inkscape="http://www.inkscape.org/namespaces/inkscape"
   version="1.2"
   width="570.84198"
   height="64.32"
   id="svg2"
   inkscape:version="0.48.3.1 r9886"
   sodipodi:docname="cubedanalytics.svg">
  <sodipodi:namedview
     pagecolor="#ffffff"
     bordercolor="#666666"
     borderopacity="1"
     objecttolerance="10"
     gridtolerance="10"
     guidetolerance="10"
     inkscape:pageopacity="0"
     inkscape:pageshadow="2"
     inkscape:window-width="1366"
     inkscape:window-height="768"
     id="namedview3001"
     showgrid="false"
     inkscape:zoom="2.1354421"
     inkscape:cx="285.42099"
     inkscape:cy="32.16"
     inkscape:window-x="0"
     inkscape:window-y="0"
     inkscape:window-maximized="0"
     inkscape:current-layer="svg2" />
  <defs
     id="defs4" />
  <metadata
     id="metadata7">
    <rdf:RDF>
      <cc:Work
         rdf:about="">
        <dc:format>image/svg+xml</dc:format>
        <dc:type
           rdf:resource="http://purl.org/dc/dcmitype/StillImage" />
        <dc:title></dc:title>
      </cc:Work>
    </rdf:RDF>
  </metadata>
  <g
     transform="translate(-149.73633,-201.58243)"
     id="layer1" />
  <g
     id="g4601"
     transform="matrix(0.33860375,0,0,0.34258134,25.430831,29.727045)">
    <path
       inkscape:connector-curvature="0"
       style="fill:#900000;fill-opacity:1;stroke:#000000;stroke-width:2;stroke-linejoin:round;stroke-opacity:1"
       id="path4603"
       d="M 74.106026,-16.400827 10.601891,-85.629244 2.7407533,-35.700136 66.244888,33.528282 z" />
    <path
       inkscape:connector-curvature="0"
       style="fill:#cd0000;fill-opacity:1;stroke:#000000;stroke-width:2;stroke-linejoin:round;stroke-opacity:1"
       id="path4605"
       d="M -74.106026,16.400827 2.7407533,-35.700136 10.601891,-85.629244 -66.244888,-33.528282 z" />
    <path
       inkscape:connector-curvature="0"
       style="fill:#ad0000;fill-opacity:1;stroke:#000000;stroke-width:2;stroke-linejoin:round;stroke-opacity:1"
       id="path4607"
       d="M 66.244888,33.528282 2.7407533,-35.700136 -74.106026,16.400827 -10.601891,85.629244 z" />
  </g>
  <path
     inkscape:connector-curvature="0"
     style="fill:#800080"
     id="path4617"
     d="m 37.309211,28.780096 c -5.53605,-6.112323 -10.12637,-11.278401 -10.20069,-11.480175 -0.17036,-0.462499 2.11851,-15.4652744 2.35943,-15.4652744 0.0977,0 4.75956,5.058128 10.35966,11.2402874 l 10.18199,11.240279 -1.21067,7.681105 c -0.66588,4.22461 -1.25872,7.72971 -1.31742,7.7891 -0.0587,0.0594 -4.63624,-4.893 -10.1723,-11.005322 z" />
  <path
     inkscape:connector-curvature="0"
     style="fill:#cd87de"
     id="path4629"
     d="m 1.0774873,33.894383 c 0,-0.958186 2.448268,-15.290358 2.642975,-15.471974 0.145407,-0.135635 5.651531,-3.934375 12.2358287,-8.4416424 10.77134,-7.373513 11.97986,-8.114537 12.05539,-7.391947 0.0462,0.441704 -0.41559,3.901066 -1.02612,7.6874714 l -1.11007,6.884371 -11.80043,8.110565 C 2.3132663,33.355242 1.0774873,34.175115 1.0774873,33.894383 z" />
  <path
     inkscape:connector-curvature="0"
     style="fill:#441650"
     id="path4631"
     d="M 11.680771,47.090438 C 6.1311483,40.958598 1.5905503,35.750518 1.5905503,35.516918 c 0,-0.23361 3.001411,-2.475501 6.669803,-4.98199 3.6683977,-2.506497 9.2196477,-6.315988 12.3361377,-8.465535 l 5.66631,-3.908277 10.23861,11.275352 c 5.63123,6.20144 10.28491,11.38922 10.3415,11.52839 0.0938,0.23068 -23.74612,16.777483 -24.67251,17.124693 -0.21968,0.0823 -4.94001,-4.86727 -10.48963,-10.999113 z" />
  <text
     xml:space="preserve"
     style="font-size:40px;font-style:normal;font-weight:normal;line-height:125%;letter-spacing:0px;word-spacing:0px;fill:#000000;fill-opacity:1;stroke:none;font-family:Sans"
     x="58.345982"
     y="47.999985"
     id="text3099"
     sodipodi:linespacing="125%"><tspan
       sodipodi:role="line"
       x="58.345982"
       y="47.999985"
       id="tspan3101"><tspan
         x="58.345982"
         y="47.999985"
         style="font-size:64px;font-variant:normal;font-stretch:normal;font-family:Happy Monkey;-inkscape-font-specification:Happy Monkey"
         id="tspan3103">Cubed Analytics</tspan></tspan></text>
</svg>
