<?xml version="1.0" encoding="UTF-8" standalone="no"?>
<!-- Created with Inkscape (http://www.inkscape.org/) -->

<svg
   xmlns:dc="http://purl.org/dc/elements/1.1/"
   xmlns:cc="http://creativecommons.org/ns#"
   xmlns:rdf="http://www.w3.org/1999/02/22-rdf-syntax-ns#"
   xmlns:svg="http://www.w3.org/2000/svg"
   xmlns="http://www.w3.org/2000/svg"
   xmlns:sodipodi="http://sodipodi.sourceforge.net/DTD/sodipodi-0.dtd"
   xmlns:inkscape="http://www.inkscape.org/namespaces/inkscape"
   width="570.84198"
   height="64.32"
   id="svg2"
   version="1.1"
   inkscape:version="0.48.3.1 r9886"
   sodipodi:docname="cubedanalytics.svg">
  <sodipodi:namedview
     id="base"
     pagecolor="#ffffff"
     bordercolor="#666666"
     borderopacity="1.0"
     inkscape:pageopacity="0.0"
     inkscape:pageshadow="2"
     inkscape:zoom="0.98994949"
     inkscape:cx="188.89818"
     inkscape:cy="-117.83722"
     inkscape:document-units="px"
     inkscape:current-layer="svg2"
     showgrid="false"
     inkscape:window-width="1366"
     inkscape:window-height="768"
     inkscape:window-x="0"
     inkscape:window-y="0"
     inkscape:window-maximized="0"
     fit-margin-top="0"
     fit-margin-left="0"
     fit-margin-right="0"
     fit-margin-bottom="0" />
  <defs
     id="defs4">
    <inkscape:perspective
       id="perspective2985"
       inkscape:persp3d-origin="406.48016 : 350.78739 : 1"
       inkscape:vp_z="616.82098 : 734.27252 : 1"
       inkscape:vp_y="0 : 1000 : 0"
       inkscape:vp_x="211.25236 : 685.7852 : 1"
       sodipodi:type="inkscape:persp3d" />
  </defs>
  <metadata
     id="metadata7">
    <rdf:RDF>
      <cc:Work
         rdf:about="">
        <dc:format>image/svg+xml</dc:format>
        <dc:type
           rdf:resource="http://purl.org/dc/dcmitype/StillImage" />
        <dc:title></dc:title>
      </cc:Work>
    </rdf:RDF>
  </metadata>
  <g
     id="layer1"
     inkscape:groupmode="layer"
     inkscape:label="Layer 1"
     transform="translate(-149.73633,-201.58243)" />
  <g
     id="g3131">
    <g
       inkscape:label="Cube :y35.80:x-31.40:z-64.20:y0.00:x0.00:z90.00"
       transform="matrix(0.33860375,0,0,0.34258134,25.430831,29.727045)"
       id="g4601">
      <path
         inkscape:connector-curvature="0"
         inkscape:label="Face:2"
         style="fill:#900000;fill-opacity:1;stroke:#000000;stroke-width:2;stroke-linejoin:round;stroke-opacity:1"
         d="M 74.106026,-16.400827 10.601891,-85.629244 2.7407533,-35.700136 66.244888,33.528282 z"
         id="path4603" />
      <path
         inkscape:connector-curvature="0"
         inkscape:label="Face:4"
         style="fill:#cd0000;fill-opacity:1;stroke:#000000;stroke-width:2;stroke-linejoin:round;stroke-opacity:1"
         d="M -74.106026,16.400827 2.7407533,-35.700136 10.601891,-85.629244 -66.244888,-33.528282 z"
         id="path4605" />
      <path
         inkscape:connector-curvature="0"
         inkscape:label="Face:3"
         style="fill:#ad0000;fill-opacity:1;stroke:#000000;stroke-width:2;stroke-linejoin:round;stroke-opacity:1"
         d="M 66.244888,33.528282 2.7407533,-35.700136 -74.106026,16.400827 -10.601891,85.629244 z"
         id="path4607" />
    </g>
    <path
       inkscape:connector-curvature="0"
       id="path4617"
       d="m 37.309211,28.780096 c -5.53605,-6.112323 -10.12637,-11.278401 -10.20069,-11.480175 -0.17036,-0.462499 2.11851,-15.4652744 2.35943,-15.4652744 0.0977,0 4.75956,5.058128 10.35966,11.2402874 l 10.18199,11.240279 -1.21067,7.681105 c -0.66588,4.22461 -1.25872,7.72971 -1.31742,7.7891 -0.0587,0.0594 -4.63624,-4.893 -10.1723,-11.005322 z"
       style="fill:#800080" />
    <path
       inkscape:connector-curvature="0"
       id="path4629"
       d="m 1.0774873,33.894383 c 0,-0.958186 2.448268,-15.290358 2.642975,-15.471974 0.145407,-0.135635 5.651531,-3.934375 12.2358287,-8.4416424 10.77134,-7.373513 11.97986,-8.114537 12.05539,-7.391947 0.0462,0.441704 -0.41559,3.901066 -1.02612,7.6874714 l -1.11007,6.884371 -11.80043,8.110565 C 2.3132663,33.355242 1.0774873,34.175115 1.0774873,33.894383 z"
       style="fill:#cd87de" />
    <path
       inkscape:connector-curvature="0"
       id="path4631"
       d="M 11.680771,47.090438 C 6.1311483,40.958598 1.5905503,35.750518 1.5905503,35.516918 c 0,-0.23361 3.001411,-2.475501 6.669803,-4.98199 3.6683977,-2.506497 9.2196477,-6.315988 12.3361377,-8.465535 l 5.66631,-3.908277 10.23861,11.275352 c 5.63123,6.20144 10.28491,11.38922 10.3415,11.52839 0.0938,0.23068 -23.74612,16.777483 -24.67251,17.124693 -0.21968,0.0823 -4.94001,-4.86727 -10.48963,-10.999113 z"
       style="fill:#441650" />
    <flowRoot
       transform="translate(-225.49777,-233.03929)"
       style="font-size:40px;font-style:normal;font-weight:normal;line-height:125%;letter-spacing:0px;word-spacing:0px;fill:#000000;fill-opacity:1;stroke:none;font-family:Sans"
       id="flowRoot3057"
       xml:space="preserve"><flowRegion
         id="flowRegion3059"><rect
           y="217.97618"
           x="283.85287"
           height="144.4518"
           width="620.23364"
           id="rect3061" /></flowRegion><flowPara
         style="font-size:64px;font-style:normal;font-variant:normal;font-weight:normal;font-stretch:normal;font-family:Happy Monkey;-inkscape-font-specification:Happy Monkey"
         id="flowPara3063">Cubed Analytics</flowPara></flowRoot>  </g>
</svg>
